<?xml version="1.0" encoding="UTF-8" standalone="no"?>
<svg
   xmlns:dc="http://purl.org/dc/elements/1.1/"
   xmlns:cc="http://creativecommons.org/ns#"
   xmlns:rdf="http://www.w3.org/1999/02/22-rdf-syntax-ns#"
   xmlns:svg="http://www.w3.org/2000/svg"
   xmlns="http://www.w3.org/2000/svg"
   xmlns:sodipodi="http://sodipodi.sourceforge.net/DTD/sodipodi-0.dtd"
   xmlns:inkscape="http://www.inkscape.org/namespaces/inkscape"
   viewBox="0 0 512 512"
   style="height: 512px; width: 512px;"
   version="1.1"
   id="svg6"
   sodipodi:docname="crown2.svg"
   inkscape:version="1.0.2-2 (e86c870879, 2021-01-15)">
  <metadata
     id="metadata12">
    <rdf:RDF>
      <cc:Work
         rdf:about="">
        <dc:format>image/svg+xml</dc:format>
        <dc:type
           rdf:resource="http://purl.org/dc/dcmitype/StillImage" />
        <dc:title />
      </cc:Work>
    </rdf:RDF>
  </metadata>
  <defs
     id="defs10" />
  <sodipodi:namedview
     pagecolor="#ffffff"
     bordercolor="#666666"
     borderopacity="1"
     objecttolerance="10"
     gridtolerance="10"
     guidetolerance="10"
     inkscape:pageopacity="0"
     inkscape:pageshadow="2"
     inkscape:window-width="1920"
     inkscape:window-height="1017"
     id="namedview8"
     showgrid="false"
     inkscape:zoom="1.0569774"
     inkscape:cx="247.16905"
     inkscape:cy="235.44097"
     inkscape:window-x="-8"
     inkscape:window-y="-8"
     inkscape:window-maximized="1"
     inkscape:current-layer="g4"
     showguides="false"
     inkscape:document-rotation="0" />
  <g
     class=""
     transform="translate(-2,-1)"
     style="fill:#000000;fill-opacity:1"
     id="g4">
    <path
       id="path842"
       style="fill:#818181;fill-opacity:1;stroke:none;stroke-width:1;stroke-miterlimit:4;stroke-dasharray:none;stroke-opacity:1"
       d="M 16.824219,-0.66992188 C 18.858023,16.432254 21.033985,33.491334 22.949718,50.60507 c 6.074422,61.08662 12.140342,122.17409 18.200673,183.26212 45.830377,11.12562 91.926319,21.26158 138.441409,29.10156 3.73378,0.42616 7.32537,-0.94578 10.95511,-1.56142 43.38864,-9.08641 86.77746,-18.17194 130.16598,-27.25889 C 329.48076,156.01385 338.24547,77.878909 347.01172,-0.25585938 319.35878,25.469459 291.70572,51.194652 264.05273,76.919922 253.08252,54.221434 242.11366,31.522287 231.14258,8.8242188 214.50846,33.536466 197.87013,58.245883 181.23438,82.957031 164.68764,58.381415 148.13975,33.806578 131.59375,9.2304688 120.28005,31.75233 108.96472,54.273377 97.650391,76.794922 81.645182,61.508738 65.33511,46.545199 49.164731,31.43451 46.758794,28.891276 44.609392,26.120703 42.290387,23.499423 33.536529,13.251706 24.785034,3.0019703 16.029297,-7.2441406 c 0.264974,2.1914062 0.529948,4.3828125 0.794922,6.57421872 z" />
    <path
       d="M 38.073147,40.868306 55.947779,220.96793 C 129.3522,238.7082 181.12526,247.03661 181.12526,247.03661 L 306.10351,220.86793 326.29279,40.869306 259.07756,103.40773 228.86174,40.871306 181.23485,111.59773 133.60973,40.871306 102.19002,103.40773 38.07758,40.871306 Z"
       fill="#fff"
       fill-opacity="1"
       id="path2"
       style="fill:#616161;fill-opacity:1;stroke:#000000;stroke-width:8;stroke-miterlimit:4;stroke-dasharray:none;stroke-opacity:1"
       sodipodi:nodetypes="cccccccccccc" />
  </g>
</svg>
